<?xml version="1.0" encoding="utf-8"?>
<!-- Generator: Adobe Illustrator 16.0.0, SVG Export Plug-In . SVG Version: 6.00 Build 0)  -->
<!DOCTYPE svg PUBLIC "-//W3C//DTD SVG 1.1//EN" "http://www.w3.org/Graphics/SVG/1.1/DTD/svg11.dtd">
<svg version="1.1" id="ic-transaction-staked" xmlns="http://www.w3.org/2000/svg" xmlns:xlink="http://www.w3.org/1999/xlink"
	 x="0px" y="0px" width="1280px" height="720px" viewBox="0 0 1280 720" enable-background="new 0 0 1280 720" xml:space="preserve"
	>
<path id="Path_18914" fill="#007BFE" d="M1543,180v-33c-3-51-45-90-96-87c-42,3-78,33-84,78l0,0l0,0c-6-48-54-84-102-75
	c-45,6-78,45-78,90v30h-120v180h60v300h480V360h60V180H1543z M1423,162v-12c0-18,12-30,30-30s30,12,30,30v30h-78L1423,162z
	 M1393,240v240h-60V240H1393z M1243,150c0-18,12-30,30-30s30,12,30,30v12l18,18h-78V150z M1123,240h150v60h-150V240z M1543,600h-360
	V360h90v180h180V360h90V600z M1603,300h-150v-60h150V300z"/>
<path id="Rectangle_4527" fill="none" d="M280,0h720v720H280V0z"/>
<path fill="#007BFE" d="M922,489l-84-45l75-18c15-3,21-18,18-30s-18-21-30-18l-126,33l-81-45l81-45l126,33c3,0,3,0,6,0
	c12,0,21-6,24-18s-3-27-18-30l-75-18l84-45c12-6,15-21,9-33s-24-15-36-9l-81,39l21-72c3-12-3-27-18-30s-27,3-30,18l-33,120l-81,45
	v-90l87-87c9-9,9-24,0-36c-9-9-27-9-36,0l-54,54V69c0-15-12-24-27-24s-27,12-27,24v93l-54-54c-12-9-27-9-36,0s-9,24,0,36l93,87v90
	l-84-45l-33-120c-3-12-18-21-30-18c-15,3-21,18-18,30l18,72l-84-45c-12-6-27-3-36,9c-6,12-3,27,9,33l84,45l-75,21c-15,3-21,18-18,30
	s12,18,24,18c3,0,3,0,6,0l126-33l81,45l-81,45l-126-33c-15-3-27,3-30,18c-3,12,3,27,18,30l75,18l-84,45c-12,6-15,21-9,33
	c6,9,12,12,21,12c3,0,9,0,12-3l84-45l-21,72c-3,12,3,27,18,30c3,0,3,0,6,0c12,0,21-6,24-18l33-120l81-45v90l-93,87c-9,9-9,24,0,36
	c9,9,27,9,36,0l54-54v93c0,15,12,24,27,24s27-12,27-24v-93l54,54c6,6,12,6,18,6s12-3,18-6c9-9,9-24,0-36l-93-87v-90l81,45l33,120
	c3,12,12,18,24,18c3,0,3,0,6,0c15-3,21-18,18-30l-21-72l84,45c3,3,9,3,12,3c9,0,18-3,21-12C940,510,934,495,922,489z"/>
</svg>
