/* XPM */
static char *_13aabebde794b0aa08c8a8f81683b1d[] = {
/* columns rows colors chars-per-pixel */
"16 16 109 2 ",
"   c None",
".  c #242F33",
"X  c #2B3539",
"o  c #313B3F",
"O  c #353F43",
"+  c #374145",
"@  c #3D4568",
"#  c #4D5659",
"$  c #4F585B",
"%  c #515A5D",
"&  c #535C5F",
"*  c #576063",
"=  c #5D6568",
"-  c #6A7274",
";  c #6F7779",
":  c #695A81",
">  c #6E5F85",
",  c #736589",
"<  c #75688C",
"1  c #796C8E",
"2  c #787F82",
"3  c #891DD3",
"4  c #8F28D5",
"5  c #922FD6",
"6  c #8B33D6",
"7  c #9536D8",
"8  c #9636D8",
"9  c #9738D8",
"0  c #983AD9",
"q  c #9A3DD9",
"w  c #9A3FD9",
"e  c #9B41D9",
"r  c #9C41DA",
"t  c #9D44DA",
"y  c #9D44DB",
"u  c #9D45DB",
"i  c #9E46DB",
"p  c #9F47DB",
"a  c #A048DB",
"s  c #A14CDB",
"d  c #A24DDD",
"f  c #A34FDC",
"g  c #A350DD",
"h  c #A654DE",
"j  c #A655DE",
"k  c #A756DE",
"l  c #A757DE",
"z  c #A758DE",
"x  c #A75EDF",
"c  c #A858DE",
"v  c #A95BDF",
"b  c #AA5BDF",
"n  c #9F69DF",
"m  c #AC5FE0",
"M  c #AD63E1",
"N  c #B16BE2",
"B  c #B978E5",
"V  c #788082",
"C  c #7A8184",
"Z  c #2DECDF",
"A  c #69E6DF",
"S  c #54DBE3",
"D  c #6DD4E5",
"F  c #7CD0E6",
"G  c #42EDE2",
"H  c #5BF0E6",
"J  c #68E7E7",
"K  c #68F1E8",
"L  c #77F2EA",
"P  c #77F3EA",
"I  c #79F0E8",
"U  c #808689",
"Y  c #82888B",
"T  c #868C8E",
"R  c #868C8F",
"E  c #8A8F92",
"W  c #8E9496",
"Q  c #989DA0",
"!  c #999EA1",
"~  c #A2A7A9",
"^  c #A9AFB1",
"/  c #AEB2B4",
"(  c #B6BABC",
")  c #8C87E0",
"_  c #8C8BE1",
"`  c #988CE3",
"'  c #BA92E8",
"]  c #85ADE4",
"[  c #9DB4E8",
"{  c #A6BCEB",
"}  c #9CCDCB",
"|  c #89CBE8",
" . c #90C2E8",
".. c #82EAEA",
"X. c #80F3EB",
"o. c #85F4EC",
"O. c #88F4ED",
"+. c #8EF5ED",
"@. c #94F5EE",
"#. c #99F5EF",
"$. c #98F6EF",
"%. c #9BF6EF",
"&. c #9FF6F0",
"*. c #B1E6E3",
"=. c #A0F6F0",
"-. c #C7C9CB",
";. c #D6E0E0",
":. c #C4FAF6",
">. c #D0FAF8",
/* pixels */
"                                ",
"                                ",
"              :.>.              ",
"        =.&.O.X.@.$.%.#.        ",
"     .o.L Z G K ..[ ' { P +.    ",
"    g n ] J D _ x ` F I *.;.    ",
"    j M h b k ) S A } ^ W -.    ",
"    i m z w a | H C $ & T (     ",
"    q y d l p 6 @ O ; Q ~ /     ",
"      s t d l v < 2 Y U R       ",
"    B N 8 4 w c 1 * + X & !     ",
"    7 e f 5 3 u , . o % Y E     ",
"        9 r 0 i > # - ; V       ",
"            e t : =             ",
"                                ",
"                                "
};
