/* XPM */
static char *_13aac1a26ed4e659ef962924571156f[] = {
/* columns rows colors chars-per-pixel */
"32 32 152 2 ",
"   c None",
".  c #242F33",
"X  c #263135",
"o  c #2B363A",
"O  c #2D383B",
"+  c #303A3E",
"@  c #333E41",
"#  c #482A6B",
"$  c #264345",
"%  c #374145",
"&  c #3A4447",
"*  c #3D4749",
"=  c #3F494C",
"-  c #444E51",
";  c #4A5356",
":  c #4F585B",
">  c #515A5C",
",  c #575F62",
"<  c #5B6366",
"1  c #5E676A",
"2  c #626A6D",
"3  c #676F72",
"4  c #6A7274",
"5  c #6F777A",
"6  c #70777A",
"7  c #737B7E",
"8  c #654B83",
"9  c #6E558A",
"0  c #70578C",
"q  c #725A8F",
"w  c #765E91",
"e  c #767E81",
"r  c #7B6595",
"t  c #7F6A98",
"y  c #826E9B",
"u  c #891DD3",
"i  c #8D25D4",
"p  c #912DD6",
"a  c #9534D7",
"s  c #9638D7",
"d  c #983AD7",
"f  c #9636D8",
"g  c #993DD9",
"h  c #9D44DA",
"j  c #9F49DB",
"k  c #825BDA",
"l  c #9B56DD",
"z  c #A14BDC",
"x  c #A553DD",
"c  c #A857DE",
"v  c #A758DE",
"b  c #AA5BDF",
"n  c #9576DF",
"m  c #A364DF",
"M  c #AC61DF",
"N  c #9C7AE0",
"B  c #AD62E0",
"V  c #A16EE0",
"C  c #B067E2",
"Z  c #B26CE3",
"A  c #A17AE1",
"S  c #B775E4",
"D  c #B877E4",
"F  c #BC7EE6",
"G  c #49839F",
"H  c #7B8285",
"J  c #7F8689",
"K  c #73A4E0",
"L  c #2CECDF",
"P  c #22EBDD",
"I  c #35ECE0",
"U  c #3DEDE1",
"Y  c #43E4D9",
"T  c #75C2E4",
"R  c #66D5E4",
"E  c #75D9E7",
"W  c #45EEE3",
"Q  c #4BEFE4",
"!  c #53EFE4",
"~  c #51E2E3",
"^  c #56F0E5",
"/  c #5BF0E6",
"(  c #6EE8E0",
")  c #67E7E7",
"_  c #76EAE8",
"`  c #64F1E7",
"'  c #67F1E8",
"]  c #6BF2E8",
"[  c #75F2E9",
"{  c #7CF3EB",
"}  c #808789",
"|  c #848A8D",
" . c #8C9194",
".. c #919699",
"X. c #969B9E",
"o. c #9DA2A5",
"O. c #A2A7A9",
"+. c #A6AAAC",
"@. c #A8ACAF",
"#. c #ADB2B4",
"$. c #ABB9BA",
"%. c #B3B6B8",
"&. c #B5B9BA",
"*. c #B9BDBF",
"=. c #828FDF",
"-. c #9583E1",
";. c #8E92E1",
":. c #A987E4",
">. c #A38AE4",
",. c #BE84E7",
"<. c #A295E5",
"1. c #BF96E9",
"2. c #BE9CEA",
"3. c #8AA3E3",
"4. c #ABAFE9",
"5. c #AEB9EB",
"6. c #C087E8",
"7. c #C794EA",
"8. c #8ECECB",
"9. c #99DCD8",
"0. c #BFC3C5",
"q. c #B6C8C9",
"w. c #BEDBDA",
"e. c #84CAE7",
"r. c #89C9E7",
"t. c #99C4E9",
"y. c #92DDEC",
"u. c #83F4EC",
"i. c #8CF4EE",
"p. c #92F5EE",
"a. c #9CF6EF",
"s. c #9CF6F0",
"d. c #A5EAE6",
"f. c #ACF1EC",
"g. c #A4F7F1",
"h. c #ABF7F2",
"j. c #AEF8F3",
"k. c #BEF9F5",
"l. c #B1F8F3",
"z. c #C2C6C7",
"x. c #C6C9CB",
"c. c #CDCFD1",
"v. c #CED1D2",
"b. c #D3D5D7",
"n. c #D7D9DA",
"m. c #DADCDD",
"M. c #C9E8E6",
"N. c #DEE3E3",
"B. c #CCFAF7",
"V. c #C8F7F3",
"C. c #D9FBF9",
"Z. c #E2E3E4",
/* pixels */
"                                                                ",
"                                                                ",
"                                                                ",
"                                                                ",
"                                B.B.B.                          ",
"                          k.k.k.V.B.C.                          ",
"                      l.j.h.j.g.s.g.j.    h.g.g.                ",
"                a.s.a.s.u.' ! / ` [ i.p.p.p.p.p.p.p.            ",
"            p.i.i.i./ I L L I Q ] u.u.u.y.4.2.5.y.u.{ u.{       ",
"          N r.{ { { [ Q P U ] [ { [ e.:.S ,.,.1.t.[ ] u.j.V.    ",
"          x z V 3.E ' ' ) ] ` E 3.N M B Z <.e.` ] u.h.M.Z.Z.    ",
"          z z x c c -.T / R K z z x b ;.R ^ ` u.d.v.b.n.m.m.    ",
"          z B B x c c b B x z z l K ~ Q ` { 9.q.z.x.%.v.b.b.    ",
"          h C S M z x b v b B A ) W ^ ( 8.$.%.+.5 < H %.x.c.    ",
"          h b S B z g f j b M -.p.] ^ o.+...; X X & 7 #.0.x.    ",
"          g h h B Z B z f p f N [ ^ Y 4 & o * 2 X.z.*.%.*.0.    ",
"          g g h j z b B x g a i k G $ X X & 7 X.o.O.@.#.&.*.    ",
"          g g h h j z x x M z p i # . @ 2 |  ...X.o.+.@.#.      ",
"              h h h j z x c b B x 8 2 H J | |  ...X.o.          ",
"                  g h j z x c b B t 5 7 e H | J 2 >             ",
"            7.D c g p p g z x b b t 4 7 e < = . O = < }         ",
"          x S ,.B h p i u i f z v r 3 : @ . . X @ ; 3 X.+.      ",
"          a a h B c a i u u u g c r 3 @ . . . o - H .. . .X.    ",
"          f a a f d x h a u u g x w 1 @ . . = 4 J H } |  .      ",
"              f s d d g z h p d z w 2 % ; 2 7 5 7 e J |         ",
"                    d d g g h z z q < 2 2 2 4 4 7               ",
"                        g g h h h 0 < < < 2 4                   ",
"                            h h h 9 , 1                         ",
"                                                                ",
"                                                                ",
"                                                                ",
"                                                                "
};
