/* XPM */
static char *_13aac45c2964ed386685792a360b38d[] = {
/* columns rows colors chars-per-pixel */
"48 48 170 2 ",
"   c None",
".  c #242F33",
"X  c #263135",
"o  c #283337",
"O  c #2B363A",
"+  c #2B383B",
"@  c #323C3F",
"#  c #333E41",
"$  c #364044",
"%  c #394346",
"&  c #3F494D",
"*  c #2E7F7D",
"=  c #414B4E",
"-  c #444E51",
";  c #495356",
":  c #515A5D",
">  c #575F62",
",  c #5A6365",
"<  c #5E6669",
"1  c #5F686A",
"2  c #626A6D",
"3  c #666E71",
"4  c #6A7275",
"5  c #6E7679",
"6  c #727A7D",
"7  c #582884",
"8  c #65388D",
"9  c #7B539E",
"0  c #767E81",
"q  c #787F82",
"w  c #7F59A2",
"e  c #7D57A0",
"r  c #7C7BDD",
"t  c #825DA3",
"y  c #8D6CAB",
"u  c #8764A7",
"i  c #891DD3",
"p  c #8C23D4",
"a  c #8F29D5",
"s  c #912DD6",
"d  c #9534D7",
"f  c #983CD7",
"g  c #9535D8",
"h  c #9739D8",
"j  c #993DD9",
"k  c #8936D5",
"l  c #9D44DA",
"z  c #9E49DB",
"x  c #9D5FDE",
"c  c #A24CDC",
"v  c #A554DD",
"b  c #A65EDF",
"n  c #AA5BDF",
"m  c #906BDD",
"M  c #A864DF",
"N  c #AA5CE0",
"B  c #9B79E0",
"V  c #AD63E0",
"C  c #AD68E1",
"Z  c #B067E2",
"A  c #B16AE2",
"S  c #B571E4",
"D  c #B877E5",
"F  c #BA7BE5",
"G  c #7A8284",
"H  c #7F8689",
"J  c #549FBC",
"K  c #76AFE2",
"L  c #7CBEE5",
"P  c #1EEADD",
"I  c #2BECDE",
"U  c #22EBDE",
"Y  c #32ECDF",
"T  c #3DEDE1",
"R  c #37EDE0",
"E  c #5FDCD4",
"W  c #4DCDC5",
"Q  c #64E2D9",
"!  c #59C9E1",
"~  c #79D3E6",
"^  c #71CFE5",
"/  c #43EEE2",
"(  c #4BEEE4",
")  c #52EFE5",
"_  c #5DE1E4",
"`  c #54F0E4",
"'  c #5BF0E6",
"]  c #69ECE7",
"[  c #7BE6EA",
"{  c #62F1E7",
"}  c #6BF2E9",
"|  c #74F2E9",
" . c #7BF3EB",
".. c #80878A",
"X. c #848A8D",
"o. c #898E91",
"O. c #878E90",
"+. c #8D9396",
"@. c #95999C",
"#. c #919699",
"$. c #999EA1",
"%. c #9DA2A5",
"&. c #9EACAD",
"*. c #A0A5A7",
"=. c #A2A7A9",
"-. c #A6AAAD",
";. c #AAAEB1",
":. c #AEB2B4",
">. c #A1BABA",
",. c #B2B6B7",
"<. c #B2B6B8",
"1. c #B6BABB",
"2. c #BABDBF",
"3. c #AEC0BF",
"4. c #8289DE",
"5. c #BCBFC1",
"6. c #9A80E1",
"7. c #8999E1",
"8. c #BE83E7",
"9. c #B589E6",
"0. c #AB92E6",
"q. c #8EA0E3",
"w. c #90B2E6",
"e. c #B4AAEA",
"r. c #A6BCEA",
"t. c #C087E8",
"y. c #C38CE9",
"u. c #C792EA",
"i. c #C09DEA",
"p. c #89D6D2",
"a. c #BDC1C2",
"s. c #ADD0D0",
"d. c #AEE0DD",
"f. c #94DFEC",
"g. c #90C8E8",
"h. c #A0C6EA",
"j. c #85E8E8",
"k. c #85F4EC",
"l. c #8DF4ED",
"z. c #92F5EE",
"x. c #9BF6EF",
"c. c #9DF6F0",
"v. c #BBF0ED",
"b. c #A5F7F1",
"n. c #AAF7F1",
"m. c #AFF8F3",
"M. c #B2F8F3",
"N. c #BBF9F4",
"B. c #B0F7F2",
"V. c #B0EBE7",
"C. c #C0C5C6",
"Z. c #C6C9CA",
"A. c #C9CCCE",
"S. c #C4C7C9",
"D. c #CCCFD0",
"F. c #CDD0D2",
"G. c #CEDCDD",
"H. c #D2D4D5",
"J. c #D7D9DA",
"K. c #DADBDC",
"L. c #D6D7D9",
"P. c #DFE1E1",
"I. c #D1E8E6",
"U. c #D4F2EF",
"Y. c #C5FAF6",
"T. c #CBFAF7",
"R. c #C4F5F2",
"E. c #D2FAF8",
"W. c #DDFBFA",
"Q. c #E3E4E5",
/* pixels */
"                                                                                                ",
"                                                                                                ",
"                                                                                                ",
"                                                                                                ",
"                                                                                                ",
"                                                                                                ",
"                                              E.E.E.                                            ",
"                                        T.Y.Y.Y.Y.Y.E.                                          ",
"                                    N.N.N.N.N.Y.E.E.W.                                          ",
"                              M.M.B.B.m.M.N.b.n.n.M.N.      m.n.b.b.                            ",
"                          b.b.b.b.b.m.l. .|  . .k.l.x.  c.c.x.c.c.c.c.c.                        ",
"                    c.c.x.x.x.b.l.| ( ( ( ) ' { } k.l.z.z.z.z.z.z.z.l.z.l.z.z.                  ",
"                z.z.z.l.z.z.{ ( I I Y Y R T ) } k.l.k.l.k.l.h.e.i.r.f.k.k.k. .k.k.              ",
"            f.k.k.k.k.k.k.' Y P P U U I T {  . . . . .j.g.9.F t.u.u.u.e.[ |  .| | l.b.          ",
"          N v B g.[  . . . .| { Y I / } | | | [ | ~ q.S S D F t.8.0.r.[ } } | k.n.R.U.          ",
"          N c v c b 7.~ } } } } } } } } } } ] ~ 6.N V Z A S D 0.g.] ' } | z.m.v.I.Q.Q.          ",
"          N c v v v v n B L { ] { ] { { ' K M v v n N V C 6.~ ' ' ' | c.c.V.G.K.P.P.P.          ",
"          N c c c v v v v v n 7._ ' _ 4.z z c c v n b 7._ ` ( `  .x.z.s.F.H.F.L.J.J.K.          ",
"          v c c V v v v v n n n M M c j l l c c x K ( ( ( `  .k.j.s.C.S.A.A.A.D.K.H.J.          ",
"          v l c D D Z v v v v n n n n V b z m ! / / / ) } } p.a.1.5.a.a.%.G +.1.H.F.H.          ",
"          v l l D D A N c c v n n n n n V C l.{ T ) ' } p.>.:.<.1.;.4 - = , ..;.Z.Z.H.          ",
"          N l l D D C N c c h j l n n N n C z.z.| ` Q &.-.&.:.#.> O . O $ : 6 $.a.S.A.          ",
"          v j l l n A 8.Z v j d s s g v n M k.k.} ) E %.%.5 = X . . # : o.1.,.1.2.C.S.          ",
"          c j j l l c v A F Z n l g s a g z ] | ' T W 1 $ X O $ ; 5 $.5.5.1.:.,.1.3.C.          ",
"          c j l l l l c c c Z M Z c j g s a k m J * o X X X # - 5 +.-.%.=.-.;.:.,.1.a.          ",
"          c j j j l l c c c c v n A c j d k a i 7 X X X . O : O.@.@.$.$.%.=.-.;.:.,.2.          ",
"            j j j j l l l c c c v v v C v f a p 7 X . % , O.X.O.+.+.@.@.$.%.=.-.;.:.            ",
"                c l j l l l c c c v v n n M n f 8 & 3 q G G X.X.o.+.+.@.$.$.*.-.                ",
"                      c l l l c c v v v n n M Z y 5 6 q q G H ..O.o.+.#.@.                      ",
"                      c j h l c c c v v v n n V y 5 5 6 6 0 G H ....< # %                       ",
"                u.F M c j d a s j c c v v n n n y 4 4 5 6 6 G 4 = . o O % ; < G                 ",
"            t.u.u.t.A v l h s p i i g c v v n M u 4 4 5 5 : O . . . O # = > 3 ..$.1.            ",
"          l g c D y.S n c h s p i i i i s c v n u 3 3 - O . . . . . O % ; , 6 @.-.%.%.          ",
"          l d g g l M D c h s s p i i i i s v v u 2 3 # . . . . . . # = , +.#.@.+.#.$.          ",
"          l d d g g g j v A v a p i i i i d v v t 2 2 # . . . . . O < X.o...X.o.o.+.@.          ",
"            j d g g g g d f v v v i i i i s c v t 2 2 # . . . O 2 q ..6 G G ..X.O.+.            ",
"                  j g g d f f j j n j d i s c c t < < # . = > X.5 5 5 6 q G G X.                ",
"                      j f d f f j j l c c j c c e , < ; 3 5 3 3 4 5 5 6 q G                     ",
"                          c f h j j j l l l c c e , , < 2 2 2 2 3 4 5 G                         ",
"                                j j j j j l l c e , , , , 2 2 3 4                               ",
"                                    z j l l l l 9 > , , , 2 4                                   ",
"                                          l l l 9 > > 1                                         ",
"                                              c e <                                             ",
"                                                                                                ",
"                                                                                                ",
"                                                                                                ",
"                                                                                                ",
"                                                                                                "
};
